<mxfile host="app.diagrams.net" modified="2023-08-25T04:21:09.943Z" agent="Mozilla/5.0 (Windows NT 10.0; Win64; x64) AppleWebKit/537.36 (KHTML, like Gecko) Chrome/116.0.0.0 Safari/537.36 Edg/116.0.1938.54" version="21.6.9" etag="wjbbf56IZiF6Sf1GW_g3" type="github">
  <diagram name="PÃ¡gina-1" id="m6bnkKKIup1prWgQvV2o">
    <mxGraphModel>
      <root>
        <mxCell id="0" />
        <mxCell id="1" parent="0" />
      </root>
    </mxGraphModel>
  </diagram>
</mxfile>
